<?xml version="1.0" standalone="no"?>
<!DOCTYPE svg PUBLIC "-//W3C//DTD SVG 20010904//EN"
 "http://www.w3.org/TR/2001/REC-SVG-20010904/DTD/svg10.dtd">
<svg version="1.0" xmlns="http://www.w3.org/2000/svg"
 viewBox="0 0 2600.000000 2600.000000"
 preserveAspectRatio="xMidYMid meet">
<metadata>
Created by potrace 1.13, written by Peter Selinger 2001-2015
</metadata>
<g transform="translate(0.000000,2600.000000) scale(0.100000,-0.100000)"
fill="#000000" stroke="none">
<path d="M14645 19823 c-117 -14 -300 -70 -406 -123 -174 -88 -395 -278 -529
-454 -275 -363 -435 -787 -501 -1331 -18 -145 -15 -521 5 -684 134 -1088 785
-1871 1557 -1871 789 0 1447 808 1565 1920 22 207 14 554 -16 755 -86 575
-310 1057 -645 1390 -218 216 -470 351 -732 390 -90 14 -225 17 -298 8z"/>
<path d="M10776 19744 c-174 -34 -375 -125 -526 -238 -110 -82 -287 -266 -372
-386 -225 -317 -370 -697 -440 -1145 -26 -168 -36 -551 -19 -732 34 -357 124
-687 271 -988 239 -490 599 -818 1017 -927 105 -27 135 -31 268 -32 211 -1
349 31 540 127 188 93 402 277 544 465 265 352 441 830 491 1337 16 158 13
496 -5 650 -59 507 -225 948 -485 1290 -242 318 -540 516 -874 580 -96 19
-315 18 -410 -1z"/>
<path d="M7255 16465 c-260 -46 -487 -173 -685 -382 -276 -292 -453 -718 -510
-1228 -15 -136 -12 -481 5 -630 55 -471 207 -916 437 -1278 145 -229 384 -489
568 -619 179 -127 393 -221 585 -259 91 -18 329 -18 420 0 598 119 1033 677
1161 1491 25 162 30 549 10 730 -126 1100 -771 1992 -1566 2166 -103 22 -324
27 -425 9z"/>
<path d="M18185 16473 c-537 -70 -1047 -489 -1363 -1121 -449 -900 -434 -2000
38 -2706 266 -397 657 -611 1080 -592 951 42 1770 1205 1770 2513 0 1004 -493
1774 -1214 1898 -81 14 -236 18 -311 8z"/>
<path d="M12690 15024 c-19 -2 -78 -9 -130 -15 -561 -62 -1121 -288 -1560
-630 -118 -91 -308 -275 -408 -394 -257 -306 -447 -628 -742 -1260 -455 -974
-619 -1229 -1199 -1874 -329 -365 -455 -508 -546 -616 -462 -552 -685 -997
-746 -1488 -17 -140 -7 -440 20 -592 46 -259 119 -473 247 -725 239 -472 660
-913 1154 -1211 715 -430 1531 -563 2232 -363 173 49 312 107 623 257 365 176
468 221 620 272 238 80 387 100 694 92 374 -10 527 -54 1046 -305 343 -165
453 -214 574 -259 633 -230 1352 -190 2037 113 668 295 1236 822 1542 1430
238 473 318 1011 221 1474 -69 325 -246 689 -502 1035 -149 200 -256 326 -656
769 -669 743 -841 1001 -1246 1871 -312 669 -489 985 -721 1285 -108 139 -334
370 -465 474 -519 411 -1183 649 -1849 661 -113 2 -221 1 -240 -1z"/>
</g>
</svg>
