<?xml version="1.0" standalone="no"?>
<!DOCTYPE svg PUBLIC "-//W3C//DTD SVG 20010904//EN"
 "http://www.w3.org/TR/2001/REC-SVG-20010904/DTD/svg10.dtd">
<svg version="1.0" xmlns="http://www.w3.org/2000/svg"
 viewBox="0 0 2600.000000 2600.000000"
 preserveAspectRatio="xMidYMid meet">
<metadata>
Created by potrace 1.13, written by Peter Selinger 2001-2015
</metadata>
<g transform="translate(0.000000,2600.000000) scale(0.100000,-0.100000)"
fill="#000000" stroke="none">
<path d="M9180 23010 c-431 -56 -760 -493 -812 -1078 -44 -505 157 -1036 495
-1307 312 -250 678 -256 979 -17 212 168 364 464 414 804 22 154 15 440 -16
583 -121 566 -469 962 -894 1015 -87 11 -85 11 -166 0z"/>
<path d="M6395 22105 c-129 -28 -244 -87 -336 -173 -404 -373 -355 -1147 108
-1714 135 -166 345 -334 514 -412 371 -170 728 -130 965 109 165 166 247 394
246 680 -1 624 -441 1264 -1009 1468 -151 54 -353 72 -488 42z"/>
<path d="M11375 21865 c-247 -53 -478 -254 -622 -539 -331 -655 -117 -1504
429 -1708 106 -39 263 -49 371 -24 308 72 571 350 697 736 56 169 74 286 74
475 0 466 -196 846 -522 1009 -121 61 -290 81 -427 51z"/>
<path d="M5276 19859 c-147 -24 -259 -82 -367 -189 -163 -162 -227 -353 -207
-622 22 -297 164 -584 413 -834 188 -190 387 -308 623 -371 84 -23 117 -27
247 -27 130 0 160 3 225 23 247 76 405 243 476 501 23 82 25 303 5 405 -81
407 -387 802 -771 995 -214 107 -452 152 -644 119z"/>
<path d="M8543 19463 c-391 -300 -778 -677 -1018 -993 -270 -356 -432 -685
-506 -1030 -30 -139 -32 -373 -5 -500 55 -256 166 -477 326 -644 122 -128 259
-212 410 -253 97 -26 271 -24 375 6 466 131 887 511 1196 1081 40 74 74 137
76 139 2 3 61 -25 131 -61 413 -214 743 -298 1092 -278 141 9 211 20 355 57
214 55 331 119 447 242 209 223 275 571 179 943 -82 314 -233 535 -516 752
-479 366 -1293 595 -2185 612 l-255 5 -102 -78z"/>
<path d="M17990 17019 c-157 -41 -290 -122 -422 -256 -276 -282 -425 -709
-404 -1158 29 -637 392 -1116 866 -1142 229 -12 450 85 641 284 207 215 333
492 385 843 20 138 15 396 -10 533 -84 458 -360 810 -704 898 -100 25 -250 25
-352 -2z"/>
<path d="M20745 16141 c-287 -47 -590 -230 -804 -486 -191 -230 -308 -466
-373 -756 -20 -89 -23 -130 -22 -284 0 -162 3 -190 27 -280 79 -299 271 -508
532 -580 94 -26 275 -31 374 -11 541 110 1010 618 1143 1240 17 81 22 134 22
271 0 187 -10 248 -64 397 -83 229 -279 413 -505 473 -70 18 -258 27 -330 16z"/>
<path d="M15802 15899 c-218 -36 -435 -216 -557 -459 -46 -91 -87 -211 -112
-322 -14 -65 -18 -127 -18 -288 0 -227 9 -289 71 -480 141 -441 483 -743 839
-743 382 0 694 318 792 810 27 135 24 404 -5 550 -58 289 -175 518 -357 698
-194 192 -420 273 -653 234z"/>
<path d="M21890 13890 c-510 -71 -995 -523 -1130 -1049 -89 -351 4 -690 237
-862 138 -103 291 -145 492 -136 259 11 500 112 736 309 350 292 556 747 506
1119 -26 198 -104 348 -242 464 -150 127 -377 186 -599 155z"/>
<path d="M18405 13563 c-22 -1 -103 -8 -180 -13 -749 -58 -1399 -260 -1835
-568 -127 -90 -314 -275 -380 -377 -137 -211 -207 -434 -217 -685 -14 -359
123 -644 384 -799 176 -104 559 -183 813 -166 293 19 549 96 887 266 87 43
158 79 159 79 1 0 29 -51 62 -113 175 -333 406 -623 650 -817 165 -131 387
-246 573 -297 99 -28 291 -25 389 5 299 93 544 359 665 726 70 212 84 469 36
684 -69 313 -243 668 -483 985 -260 345 -642 719 -1032 1012 l-113 85 -169 -2
c-93 -1 -187 -3 -209 -5z"/>
<path d="M9151 13069 c-153 -26 -297 -103 -422 -228 -401 -399 -485 -1147
-194 -1733 63 -128 129 -222 225 -322 208 -216 441 -313 688 -285 165 18 312
91 448 221 188 180 315 446 360 751 22 150 15 437 -15 582 -135 654 -607 1094
-1090 1014z"/>
<path d="M6500 12179 c-203 -14 -347 -83 -489 -235 -198 -213 -273 -565 -196
-934 57 -279 211 -577 411 -798 282 -311 679 -488 998 -443 570 80 828 717
570 1408 -200 536 -667 947 -1134 1001 -36 4 -108 4 -160 1z"/>
<path d="M11346 11921 c-576 -160 -906 -975 -675 -1665 79 -235 238 -439 418
-535 112 -59 184 -76 321 -76 114 1 133 4 213 32 312 110 555 413 658 820 92
364 44 751 -129 1047 -56 97 -209 254 -294 304 -105 62 -189 85 -323 89 -95 2
-134 -1 -189 -16z"/>
<path d="M5244 9915 c-434 -94 -642 -518 -503 -1024 102 -367 395 -714 756
-895 168 -84 317 -120 493 -120 140 0 234 20 345 75 183 90 311 264 357 485
56 272 -33 614 -234 899 -77 110 -246 280 -355 358 -153 109 -336 189 -511
223 -91 17 -266 17 -348 -1z"/>
<path d="M8645 9594 c-45 -23 -243 -175 -374 -288 -585 -501 -993 -1030 -1169
-1516 -67 -184 -112 -404 -112 -549 0 -178 61 -425 148 -597 192 -380 543
-602 877 -554 399 57 840 381 1156 851 62 92 171 284 203 356 l19 42 166 -83
c381 -191 653 -266 961 -266 283 1 595 75 763 182 235 151 361 411 359 748 -2
328 -129 651 -349 881 -447 467 -1265 749 -2323 799 -279 13 -290 13 -325 -6z"/>
</g>
</svg>
