<svg height='300px' width='300px'  fill="#FFFFFF" class="bird-svg" xmlns="http://www.w3.org/2000/svg" data-name="Layer 1" viewBox="0 0 200 200" x="0px" y="0px"><title>Artboard 15</title><path d="M94.28,89.4c-.35,1.21-2.43,2-3.3.85C76.55,71,49,66.44,29.39,80.88c-.88.65-2.09-.45-1.17-1.18C47.8,64.2,75.33,66.41,91.72,85a50.6,50.6,0,0,1,56.37-32.6c2.51.44,1,3.94-1.26,3.58A46.58,46.58,0,0,0,94.28,89.4Zm64.56,22.35A30.78,30.78,0,0,0,132.64,135c-6.48-10.48-19.26-16.13-31.38-10.38a.39.39,0,0,0,.26.74c13.09-3.15,26.85,2.67,30.3,16.46.49,2,3.55,1.55,3.65-.43.72-13.78,10.34-24.38,24.07-26.16C161.94,115,161.3,111.43,158.84,111.75Z"></path></svg>