<?xml version="1.0" standalone="no"?>
<!DOCTYPE svg PUBLIC "-//W3C//DTD SVG 20010904//EN"
 "http://www.w3.org/TR/2001/REC-SVG-20010904/DTD/svg10.dtd">
<svg version="1.0" xmlns="http://www.w3.org/2000/svg"
 viewBox="0 0 2600.000000 2600.000000"
 preserveAspectRatio="xMidYMid meet">
<metadata>
Created by potrace 1.13, written by Peter Selinger 2001-2015
</metadata>
<g transform="translate(0.000000,2600.000000) scale(0.100000,-0.100000)"
fill="#fff" stroke="none">
<path d="M12600 17900 c-503 -43 -915 -126 -1366 -275 -670 -222 -1292 -569
-1844 -1029 -63 -52 -117 -92 -120 -87 -6 9 -2077 187 -2085 179 -3 -3 199
-372 450 -821 l455 -815 -109 -213 c-160 -313 -254 -536 -354 -844 -564 -1736
-252 -3630 843 -5100 828 -1114 2050 -1892 3400 -2165 351 -71 635 -102 1038
-115 l212 -7 0 -579 0 -579 -935 0 -935 0 0 -420 0 -420 1355 0 1355 0 0 1000
0 1000 2345 0 2345 0 0 2913 c0 1886 -4 2970 -10 3077 -70 1111 -451 2152
-1110 3035 -291 389 -684 791 -1057 1082 -842 656 -1810 1046 -2903 1169 -169
19 -802 28 -970 14z m670 -835 c659 -26 1396 -232 1995 -557 447 -243 778
-490 1135 -848 394 -393 675 -785 922 -1285 271 -550 429 -1132 478 -1764 6
-88 10 -1012 10 -2648 l0 -2513 -2452 0 c-1516 0 -2518 4 -2623 10 -859 51
-1649 310 -2363 776 -291 191 -505 366 -768 628 -395 395 -666 771 -914 1268
-265 531 -417 1065 -482 1688 -20 189 -17 745 5 939 111 984 478 1845 1108
2601 130 158 429 456 579 581 768 636 1650 1011 2610 1110 142 14 438 27 545
23 44 -2 141 -6 215 -9z"/>
<path d="M11782 15780 c-363 -50 -632 -358 -632 -719 0 -129 21 -218 74 -326
126 -255 367 -406 651 -406 157 -1 281 36 411 123 258 173 378 498 294 798
-99 349 -444 579 -798 530z"/>
<path d="M10083 12254 c-7 -20 4 -195 22 -349 170 -1396 1345 -2490 2745
-2553 l150 -7 0 417 0 416 -87 6 c-49 4 -126 11 -173 17 -431 51 -855 253
-1174 559 -375 359 -598 828 -637 1340 -6 80 -13 151 -15 158 -3 9 -94 12
-414 12 -363 0 -411 -2 -417 -16z"/>
</g>
</svg>
