<?xml version="1.0" standalone="no"?><svg version="1.0" xmlns="http://www.w3.org/2000/svg" viewBox="0 0 2600 2600" width="2000" height="2000"><g fill="#fff"><path d="M1260 810c-50.3 4.3-91.5 12.6-136.6 27.5-67 22.2-129.2 56.9-184.4 102.9-6.3 5.2-11.7 9.2-12 8.7-.6-.9-207.7-18.7-208.5-17.9-.3.3 19.9 37.2 45 82.1l45.5 81.5-10.9 21.3c-16 31.3-25.4 53.6-35.4 84.4-56.4 173.6-25.2 363 84.3 510 82.8 111.4 205 189.2 340 216.5 35.1 7.1 63.5 10.2 103.8 11.5l21.2.7V2055h-187v84h271v-200h469v-291.3c0-188.6-.4-297-1-307.7-7-111.1-45.1-215.2-111-303.5-29.1-38.9-68.4-79.1-105.7-108.2-84.2-65.6-181-104.6-290.3-116.9-16.9-1.9-80.2-2.8-97-1.4zm67 83.5c65.9 2.6 139.6 23.2 199.5 55.7 44.7 24.3 77.8 49 113.5 84.8 39.4 39.3 67.5 78.5 92.2 128.5 27.1 55 42.9 113.2 47.8 176.4.6 8.8 1 101.2 1 264.8V1855h-245.2c-151.6 0-251.8-.4-262.3-1-85.9-5.1-164.9-31-236.3-77.6-29.1-19.1-50.5-36.6-76.8-62.8-39.5-39.5-66.6-77.1-91.4-126.8-26.5-53.1-41.7-106.5-48.2-168.8-2-18.9-1.7-74.5.5-93.9 11.1-98.4 47.8-184.5 110.8-260.1 13-15.8 42.9-45.6 57.9-58.1 76.8-63.6 165-101.1 261-111 14.2-1.4 43.8-2.7 54.5-2.3 4.4.2 14.1.6 21.5.9z"/><path d="M1178.2 1022c-36.3 5-63.2 35.8-63.2 71.9 0 12.9 2.1 21.8 7.4 32.6 12.6 25.5 36.7 40.6 65.1 40.6 15.7.1 28.1-3.6 41.1-12.3 25.8-17.3 37.8-49.8 29.4-79.8-9.9-34.9-44.4-57.9-79.8-53zM1008.3 1374.6c-.7 2 .4 19.5 2.2 34.9 17 139.6 134.5 249 274.5 255.3l15 .7V1582.2l-8.7-.6c-4.9-.4-12.6-1.1-17.3-1.7-43.1-5.1-85.5-25.3-117.4-55.9-37.5-35.9-59.8-82.8-63.7-134-.6-8-1.3-15.1-1.5-15.8-.3-.9-9.4-1.2-41.4-1.2-36.3 0-41.1.2-41.7 1.6z"/></g></svg>