<?xml version="1.0" standalone="no"?><svg version="1.0" xmlns="http://www.w3.org/2000/svg" viewBox="0 0 2600 2600" width="2000" height="2000"><path d="M1464.5 617.7c-11.7 1.4-30 7-40.6 12.3-17.4 8.8-39.5 27.8-52.9 45.4-27.5 36.3-43.5 78.7-50.1 133.1-1.8 14.5-1.5 52.1.5 68.4 13.4 108.8 78.5 187.1 155.7 187.1 78.9 0 144.7-80.8 156.5-192 2.2-20.7 1.4-55.4-1.6-75.5-8.6-57.5-31-105.7-64.5-139-21.8-21.6-47-35.1-73.2-39-9-1.4-22.5-1.7-29.8-.8zM1077.6 625.6c-17.4 3.4-37.5 12.5-52.6 23.8-11 8.2-28.7 26.6-37.2 38.6-22.5 31.7-37 69.7-44 114.5-2.6 16.8-3.6 55.1-1.9 73.2 3.4 35.7 12.4 68.7 27.1 98.8 23.9 49 59.9 81.8 101.7 92.7 10.5 2.7 13.5 3.1 26.8 3.2 21.1.1 34.9-3.1 54-12.7 18.8-9.3 40.2-27.7 54.4-46.5 26.5-35.2 44.1-83 49.1-133.7 1.6-15.8 1.3-49.6-.5-65-5.9-50.7-22.5-94.8-48.5-129-24.2-31.8-54-51.6-87.4-58-9.6-1.9-31.5-1.8-41 .1zM725.5 953.5c-26 4.6-48.7 17.3-68.5 38.2-27.6 29.2-45.3 71.8-51 122.8-1.5 13.6-1.2 48.1.5 63 5.5 47.1 20.7 91.6 43.7 127.8 14.5 22.9 38.4 48.9 56.8 61.9 17.9 12.7 39.3 22.1 58.5 25.9 9.1 1.8 32.9 1.8 42 0 59.8-11.9 103.3-67.7 116.1-149.1 2.5-16.2 3-54.9 1-73C912 1061 847.5 971.8 768 954.4c-10.3-2.2-32.4-2.7-42.5-.9zM1818.5 952.7c-53.7 7-104.7 48.9-136.3 112.1-44.9 90-43.4 200 3.8 270.6 26.6 39.7 65.7 61.1 108 59.2 95.1-4.2 177-120.5 177-251.3 0-100.4-49.3-177.4-121.4-189.8-8.1-1.4-23.6-1.8-31.1-.8zM1269 1097.6c-1.9.2-7.8.9-13 1.5-56.1 6.2-112.1 28.8-156 63-11.8 9.1-30.8 27.5-40.8 39.4-25.7 30.6-44.7 62.8-74.2 126-45.5 97.4-61.9 122.9-119.9 187.4-32.9 36.5-45.5 50.8-54.6 61.6-46.2 55.2-68.5 99.7-74.6 148.8-1.7 14-.7 44 2 59.2 4.6 25.9 11.9 47.3 24.7 72.5 23.9 47.2 66 91.3 115.4 121.1 71.5 43 153.1 56.3 223.2 36.3 17.3-4.9 31.2-10.7 62.3-25.7 36.5-17.6 46.8-22.1 62-27.2 23.8-8 38.7-10 69.4-9.2 37.4 1 52.7 5.4 104.6 30.5 34.3 16.5 45.3 21.4 57.4 25.9 63.3 23 135.2 19 203.7-11.3 66.8-29.5 123.6-82.2 154.2-143 23.8-47.3 31.8-101.1 22.1-147.4-6.9-32.5-24.6-68.9-50.2-103.5-14.9-20-25.6-32.6-65.6-76.9-66.9-74.3-84.1-100.1-124.6-187.1-31.2-66.9-48.9-98.5-72.1-128.5-10.8-13.9-33.4-37-46.5-47.4-51.9-41.1-118.3-64.9-184.9-66.1-11.3-.2-22.1-.1-24 .1z"/></svg>