<?xml version="1.0" standalone="no"?><svg version="1.0" xmlns="http://www.w3.org/2000/svg" viewBox="0 0 2600 2600" width="2000" height="2000"><path d="M918 299c-43.1 5.6-76 49.3-81.2 107.8-4.4 50.5 15.7 103.6 49.5 130.7 31.2 25 67.8 25.6 97.9 1.7 21.2-16.8 36.4-46.4 41.4-80.4 2.2-15.4 1.5-44-1.6-58.3-12.1-56.6-46.9-96.2-89.4-101.5-8.7-1.1-8.5-1.1-16.6 0zM639.5 389.5c-12.9 2.8-24.4 8.7-33.6 17.3-40.4 37.3-35.5 114.7 10.8 171.4 13.5 16.6 34.5 33.4 51.4 41.2 37.1 17 72.8 13 96.5-10.9 16.5-16.6 24.7-39.4 24.6-68-.1-62.4-44.1-126.4-100.9-146.8-15.1-5.4-35.3-7.2-48.8-4.2zM1137.5 413.5c-24.7 5.3-47.8 25.4-62.2 53.9-33.1 65.5-11.7 150.4 42.9 170.8 10.6 3.9 26.3 4.9 37.1 2.4 30.8-7.2 57.1-35 69.7-73.6 5.6-16.9 7.4-28.6 7.4-47.5 0-46.6-19.6-84.6-52.2-100.9-12.1-6.1-29-8.1-42.7-5.1zM527.6 614.1c-14.7 2.4-25.9 8.2-36.7 18.9-16.3 16.2-22.7 35.3-20.7 62.2 2.2 29.7 16.4 58.4 41.3 83.4 18.8 19 38.7 30.8 62.3 37.1 8.4 2.3 11.7 2.7 24.7 2.7s16-.3 22.5-2.3c24.7-7.6 40.5-24.3 47.6-50.1 2.3-8.2 2.5-30.3.5-40.5-8.1-40.7-38.7-80.2-77.1-99.5-21.4-10.7-45.2-15.2-64.4-11.9zM854.3 653.7c-39.1 30-77.8 67.7-101.8 99.3-27 35.6-43.2 68.5-50.6 103-3 13.9-3.2 37.3-.5 50 5.5 25.6 16.6 47.7 32.6 64.4 12.2 12.8 25.9 21.2 41 25.3 9.7 2.6 27.1 2.4 37.5-.6C859.1 982 901.2 944 932.1 887c4-7.4 7.4-13.7 7.6-13.9.2-.3 6.1 2.5 13.1 6.1 41.3 21.4 74.3 29.8 109.2 27.8 14.1-.9 21.1-2 35.5-5.7 21.4-5.5 33.1-11.9 44.7-24.2 20.9-22.3 27.5-57.1 17.9-94.3-8.2-31.4-23.3-53.5-51.6-75.2-47.9-36.6-129.3-59.5-218.5-61.2l-25.5-.5-10.2 7.8zM1799 898.1c-15.7 4.1-29 12.2-42.2 25.6-27.6 28.2-42.5 70.9-40.4 115.8 2.9 63.7 39.2 111.6 86.6 114.2 22.9 1.2 45-8.5 64.1-28.4 20.7-21.5 33.3-49.2 38.5-84.3 2-13.8 1.5-39.6-1-53.3-8.4-45.8-36-81-70.4-89.8-10-2.5-25-2.5-35.2.2zM2074.5 985.9c-28.7 4.7-59 23-80.4 48.6-19.1 23-30.8 46.6-37.3 75.6-2 8.9-2.3 13-2.2 28.4 0 16.2.3 19 2.7 28 7.9 29.9 27.1 50.8 53.2 58 9.4 2.6 27.5 3.1 37.4 1.1 54.1-11 101-61.8 114.3-124 1.7-8.1 2.2-13.4 2.2-27.1 0-18.7-1-24.8-6.4-39.7-8.3-22.9-27.9-41.3-50.5-47.3-7-1.8-25.8-2.7-33-1.6zM1580.2 1010.1c-21.8 3.6-43.5 21.6-55.7 45.9-4.6 9.1-8.7 21.1-11.2 32.2-1.4 6.5-1.8 12.7-1.8 28.8 0 22.7.9 28.9 7.1 48 14.1 44.1 48.3 74.3 83.9 74.3 38.2 0 69.4-31.8 79.2-81 2.7-13.5 2.4-40.4-.5-55-5.8-28.9-17.5-51.8-35.7-69.8-19.4-19.2-42-27.3-65.3-23.4zM2189 1211c-51 7.1-99.5 52.3-113 104.9-8.9 35.1.4 69 23.7 86.2 13.8 10.3 29.1 14.5 49.2 13.6 25.9-1.1 50-11.2 73.6-30.9 35-29.2 55.6-74.7 50.6-111.9-2.6-19.8-10.4-34.8-24.2-46.4-15-12.7-37.7-18.6-59.9-15.5zM1840.5 1243.7c-2.2.1-10.3.8-18 1.3-74.9 5.8-139.9 26-183.5 56.8-12.7 9-31.4 27.5-38 37.7-13.7 21.1-20.7 43.4-21.7 68.5-1.4 35.9 12.3 64.4 38.4 79.9 17.6 10.4 55.9 18.3 81.3 16.6 29.3-1.9 54.9-9.6 88.7-26.6 8.7-4.3 15.8-7.9 15.9-7.9.1 0 2.9 5.1 6.2 11.3 17.5 33.3 40.6 62.3 65 81.7 16.5 13.1 38.7 24.6 57.3 29.7 9.9 2.8 29.1 2.5 38.9-.5 29.9-9.3 54.4-35.9 66.5-72.6 7-21.2 8.4-46.9 3.6-68.4-6.9-31.3-24.3-66.8-48.3-98.5-26-34.5-64.2-71.9-103.2-101.2l-11.3-8.5-16.9.2c-9.3.1-18.7.3-20.9.5zM915.1 1293.1c-15.3 2.6-29.7 10.3-42.2 22.8-40.1 39.9-48.5 114.7-19.4 173.3 6.3 12.8 12.9 22.2 22.5 32.2 20.8 21.6 44.1 31.3 68.8 28.5 16.5-1.8 31.2-9.1 44.8-22.1 18.8-18 31.5-44.6 36-75.1 2.2-15 1.5-43.7-1.5-58.2-13.5-65.4-60.7-109.4-109-101.4zM650 1382.1c-20.3 1.4-34.7 8.3-48.9 23.5-19.8 21.3-27.3 56.5-19.6 93.4 5.7 27.9 21.1 57.7 41.1 79.8 28.2 31.1 67.9 48.8 99.8 44.3 57-8 82.8-71.7 57-140.8-20-53.6-66.7-94.7-113.4-100.1-3.6-.4-10.8-.4-16-.1zM1134.6 1407.9c-57.6 16-90.6 97.5-67.5 166.5 7.9 23.5 23.8 43.9 41.8 53.5 11.2 5.9 18.4 7.6 32.1 7.6 11.4-.1 13.3-.4 21.3-3.2 31.2-11 55.5-41.3 65.8-82 9.2-36.4 4.4-75.1-12.9-104.7-5.6-9.7-20.9-25.4-29.4-30.4-10.5-6.2-18.9-8.5-32.3-8.9-9.5-.2-13.4.1-18.9 1.6zM524.4 1608.5c-43.4 9.4-64.2 51.8-50.3 102.4 10.2 36.7 39.5 71.4 75.6 89.5 16.8 8.4 31.7 12 49.3 12 14 0 23.4-2 34.5-7.5 18.3-9 31.1-26.4 35.7-48.5 5.6-27.2-3.3-61.4-23.4-89.9-7.7-11-24.6-28-35.5-35.8-15.3-10.9-33.6-18.9-51.1-22.3-9.1-1.7-26.6-1.7-34.8.1zM864.5 1640.6c-4.5 2.3-24.3 17.5-37.4 28.8-58.5 50.1-99.3 103-116.9 151.6-6.7 18.4-11.2 40.4-11.2 54.9 0 17.8 6.1 42.5 14.8 59.7 19.2 38 54.3 60.2 87.7 55.4 39.9-5.7 84-38.1 115.6-85.1 6.2-9.2 17.1-28.4 20.3-35.6l1.9-4.2 16.6 8.3c38.1 19.1 65.3 26.6 96.1 26.6 28.3-.1 59.5-7.5 76.3-18.2 23.5-15.1 36.1-41.1 35.9-74.8-.2-32.8-12.9-65.1-34.9-88.1-44.7-46.7-126.5-74.9-232.3-79.9-27.9-1.3-29-1.3-32.5.6z"/></svg>