<?xml version="1.0" encoding="utf-8"?><svg viewBox="0 0 2000 2000" xmlns="http://www.w3.org/2000/svg" xmlns:xlink="http://www.w3.org/1999/xlink"><style>:root>svg{display:none}:root>svg:target{display:block}</style><svg fill="#FFF" class="abird-svg" data-name="Layer 1" viewBox="0 0 200 200" id="bird" xmlns="http://www.w3.org/2000/svg"><path d="M94.28 89.4c-.35 1.21-2.43 2-3.3.85C76.55 71 49 66.44 29.39 80.88c-.88.65-2.09-.45-1.17-1.18C47.8 64.2 75.33 66.41 91.72 85a50.6 50.6 0 0156.37-32.6c2.51.44 1 3.94-1.26 3.58A46.58 46.58 0 0094.28 89.4zm64.56 22.35a30.78 30.78 0 00-26.2 23.25c-6.48-10.48-19.26-16.13-31.38-10.38a.39.39 0 00.26.74c13.09-3.15 26.85 2.67 30.3 16.46.49 2 3.55 1.55 3.65-.43.72-13.78 10.34-24.38 24.07-26.16 2.4-.23 1.76-3.8-.7-3.48z"/></svg><svg version="1.0" viewBox="0 0 2600 2600" id="bird2" xmlns="http://www.w3.org/2000/svg"><g fill="#fff"><path d="M1260 810c-50.3 4.3-91.5 12.6-136.6 27.5-67 22.2-129.2 56.9-184.4 102.9-6.3 5.2-11.7 9.2-12 8.7-.6-.9-207.7-18.7-208.5-17.9-.3.3 19.9 37.2 45 82.1l45.5 81.5-10.9 21.3c-16 31.3-25.4 53.6-35.4 84.4-56.4 173.6-25.2 363 84.3 510 82.8 111.4 205 189.2 340 216.5 35.1 7.1 63.5 10.2 103.8 11.5l21.2.7V2055h-187v84h271v-200h469v-291.3c0-188.6-.4-297-1-307.7-7-111.1-45.1-215.2-111-303.5-29.1-38.9-68.4-79.1-105.7-108.2-84.2-65.6-181-104.6-290.3-116.9-16.9-1.9-80.2-2.8-97-1.4zm67 83.5c65.9 2.6 139.6 23.2 199.5 55.7 44.7 24.3 77.8 49 113.5 84.8 39.4 39.3 67.5 78.5 92.2 128.5 27.1 55 42.9 113.2 47.8 176.4.6 8.8 1 101.2 1 264.8V1855h-245.2c-151.6 0-251.8-.4-262.3-1-85.9-5.1-164.9-31-236.3-77.6-29.1-19.1-50.5-36.6-76.8-62.8-39.5-39.5-66.6-77.1-91.4-126.8-26.5-53.1-41.7-106.5-48.2-168.8-2-18.9-1.7-74.5.5-93.9 11.1-98.4 47.8-184.5 110.8-260.1 13-15.8 42.9-45.6 57.9-58.1 76.8-63.6 165-101.1 261-111 14.2-1.4 43.8-2.7 54.5-2.3 4.4.2 14.1.6 21.5.9z"/><path d="M1178.2 1022c-36.3 5-63.2 35.8-63.2 71.9 0 12.9 2.1 21.8 7.4 32.6 12.6 25.5 36.7 40.6 65.1 40.6 15.7.1 28.1-3.6 41.1-12.3 25.8-17.3 37.8-49.8 29.4-79.8-9.9-34.9-44.4-57.9-79.8-53zM1008.3 1374.6c-.7 2 .4 19.5 2.2 34.9 17 139.6 134.5 249 274.5 255.3l15 .7V1582.2l-8.7-.6c-4.9-.4-12.6-1.1-17.3-1.7-43.1-5.1-85.5-25.3-117.4-55.9-37.5-35.9-59.8-82.8-63.7-134-.6-8-1.3-15.1-1.5-15.8-.3-.9-9.4-1.2-41.4-1.2-36.3 0-41.1.2-41.7 1.6z"/></g></svg><svg version="1.0" viewBox="0 0 2600 2600" id="fluffy" xmlns="http://www.w3.org/2000/svg"><path d="M1464.5 617.7c-11.7 1.4-30 7-40.6 12.3-17.4 8.8-39.5 27.8-52.9 45.4-27.5 36.3-43.5 78.7-50.1 133.1-1.8 14.5-1.5 52.1.5 68.4 13.4 108.8 78.5 187.1 155.7 187.1 78.9 0 144.7-80.8 156.5-192 2.2-20.7 1.4-55.4-1.6-75.5-8.6-57.5-31-105.7-64.5-139-21.8-21.6-47-35.1-73.2-39-9-1.4-22.5-1.7-29.8-.8zM1077.6 625.6c-17.4 3.4-37.5 12.5-52.6 23.8-11 8.2-28.7 26.6-37.2 38.6-22.5 31.7-37 69.7-44 114.5-2.6 16.8-3.6 55.1-1.9 73.2 3.4 35.7 12.4 68.7 27.1 98.8 23.9 49 59.9 81.8 101.7 92.7 10.5 2.7 13.5 3.1 26.8 3.2 21.1.1 34.9-3.1 54-12.7 18.8-9.3 40.2-27.7 54.4-46.5 26.5-35.2 44.1-83 49.1-133.7 1.6-15.8 1.3-49.6-.5-65-5.9-50.7-22.5-94.8-48.5-129-24.2-31.8-54-51.6-87.4-58-9.6-1.9-31.5-1.8-41 .1zM725.5 953.5c-26 4.6-48.7 17.3-68.5 38.2-27.6 29.2-45.3 71.8-51 122.8-1.5 13.6-1.2 48.1.5 63 5.5 47.1 20.7 91.6 43.7 127.8 14.5 22.9 38.4 48.9 56.8 61.9 17.9 12.7 39.3 22.1 58.5 25.9 9.1 1.8 32.9 1.8 42 0 59.8-11.9 103.3-67.7 116.1-149.1 2.5-16.2 3-54.9 1-73C912 1061 847.5 971.8 768 954.4c-10.3-2.2-32.4-2.7-42.5-.9zM1818.5 952.7c-53.7 7-104.7 48.9-136.3 112.1-44.9 90-43.4 200 3.8 270.6 26.6 39.7 65.7 61.1 108 59.2 95.1-4.2 177-120.5 177-251.3 0-100.4-49.3-177.4-121.4-189.8-8.1-1.4-23.6-1.8-31.1-.8zM1269 1097.6c-1.9.2-7.8.9-13 1.5-56.1 6.2-112.1 28.8-156 63-11.8 9.1-30.8 27.5-40.8 39.4-25.7 30.6-44.7 62.8-74.2 126-45.5 97.4-61.9 122.9-119.9 187.4-32.9 36.5-45.5 50.8-54.6 61.6-46.2 55.2-68.5 99.7-74.6 148.8-1.7 14-.7 44 2 59.2 4.6 25.9 11.9 47.3 24.7 72.5 23.9 47.2 66 91.3 115.4 121.1 71.5 43 153.1 56.3 223.2 36.3 17.3-4.9 31.2-10.7 62.3-25.7 36.5-17.6 46.8-22.1 62-27.2 23.8-8 38.7-10 69.4-9.2 37.4 1 52.7 5.4 104.6 30.5 34.3 16.5 45.3 21.4 57.4 25.9 63.3 23 135.2 19 203.7-11.3 66.8-29.5 123.6-82.2 154.2-143 23.8-47.3 31.8-101.1 22.1-147.4-6.9-32.5-24.6-68.9-50.2-103.5-14.9-20-25.6-32.6-65.6-76.9-66.9-74.3-84.1-100.1-124.6-187.1-31.2-66.9-48.9-98.5-72.1-128.5-10.8-13.9-33.4-37-46.5-47.4-51.9-41.1-118.3-64.9-184.9-66.1-11.3-.2-22.1-.1-24 .1z"/></svg><svg version="1.0" viewBox="0 0 2600 2600" id="fluffy2" xmlns="http://www.w3.org/2000/svg"><path d="M918 299c-43.1 5.6-76 49.3-81.2 107.8-4.4 50.5 15.7 103.6 49.5 130.7 31.2 25 67.8 25.6 97.9 1.7 21.2-16.8 36.4-46.4 41.4-80.4 2.2-15.4 1.5-44-1.6-58.3-12.1-56.6-46.9-96.2-89.4-101.5-8.7-1.1-8.5-1.1-16.6 0zM639.5 389.5c-12.9 2.8-24.4 8.7-33.6 17.3-40.4 37.3-35.5 114.7 10.8 171.4 13.5 16.6 34.5 33.4 51.4 41.2 37.1 17 72.8 13 96.5-10.9 16.5-16.6 24.7-39.4 24.6-68-.1-62.4-44.1-126.4-100.9-146.8-15.1-5.4-35.3-7.2-48.8-4.2zM1137.5 413.5c-24.7 5.3-47.8 25.4-62.2 53.9-33.1 65.5-11.7 150.4 42.9 170.8 10.6 3.9 26.3 4.9 37.1 2.4 30.8-7.2 57.1-35 69.7-73.6 5.6-16.9 7.4-28.6 7.4-47.5 0-46.6-19.6-84.6-52.2-100.9-12.1-6.1-29-8.1-42.7-5.1zM527.6 614.1c-14.7 2.4-25.9 8.2-36.7 18.9-16.3 16.2-22.7 35.3-20.7 62.2 2.2 29.7 16.4 58.4 41.3 83.4 18.8 19 38.7 30.8 62.3 37.1 8.4 2.3 11.7 2.7 24.7 2.7s16-.3 22.5-2.3c24.7-7.6 40.5-24.3 47.6-50.1 2.3-8.2 2.5-30.3.5-40.5-8.1-40.7-38.7-80.2-77.1-99.5-21.4-10.7-45.2-15.2-64.4-11.9zM854.3 653.7c-39.1 30-77.8 67.7-101.8 99.3-27 35.6-43.2 68.5-50.6 103-3 13.9-3.2 37.3-.5 50 5.5 25.6 16.6 47.7 32.6 64.4 12.2 12.8 25.9 21.2 41 25.3 9.7 2.6 27.1 2.4 37.5-.6C859.1 982 901.2 944 932.1 887c4-7.4 7.4-13.7 7.6-13.9.2-.3 6.1 2.5 13.1 6.1 41.3 21.4 74.3 29.8 109.2 27.8 14.1-.9 21.1-2 35.5-5.7 21.4-5.5 33.1-11.9 44.7-24.2 20.9-22.3 27.5-57.1 17.9-94.3-8.2-31.4-23.3-53.5-51.6-75.2-47.9-36.6-129.3-59.5-218.5-61.2l-25.5-.5-10.2 7.8zM1799 898.1c-15.7 4.1-29 12.2-42.2 25.6-27.6 28.2-42.5 70.9-40.4 115.8 2.9 63.7 39.2 111.6 86.6 114.2 22.9 1.2 45-8.5 64.1-28.4 20.7-21.5 33.3-49.2 38.5-84.3 2-13.8 1.5-39.6-1-53.3-8.4-45.8-36-81-70.4-89.8-10-2.5-25-2.5-35.2.2zM2074.5 985.9c-28.7 4.7-59 23-80.4 48.6-19.1 23-30.8 46.6-37.3 75.6-2 8.9-2.3 13-2.2 28.4 0 16.2.3 19 2.7 28 7.9 29.9 27.1 50.8 53.2 58 9.4 2.6 27.5 3.1 37.4 1.1 54.1-11 101-61.8 114.3-124 1.7-8.1 2.2-13.4 2.2-27.1 0-18.7-1-24.8-6.4-39.7-8.3-22.9-27.9-41.3-50.5-47.3-7-1.8-25.8-2.7-33-1.6zM1580.2 1010.1c-21.8 3.6-43.5 21.6-55.7 45.9-4.6 9.1-8.7 21.1-11.2 32.2-1.4 6.5-1.8 12.7-1.8 28.8 0 22.7.9 28.9 7.1 48 14.1 44.1 48.3 74.3 83.9 74.3 38.2 0 69.4-31.8 79.2-81 2.7-13.5 2.4-40.4-.5-55-5.8-28.9-17.5-51.8-35.7-69.8-19.4-19.2-42-27.3-65.3-23.4zM2189 1211c-51 7.1-99.5 52.3-113 104.9-8.9 35.1.4 69 23.7 86.2 13.8 10.3 29.1 14.5 49.2 13.6 25.9-1.1 50-11.2 73.6-30.9 35-29.2 55.6-74.7 50.6-111.9-2.6-19.8-10.4-34.8-24.2-46.4-15-12.7-37.7-18.6-59.9-15.5zM1840.5 1243.7c-2.2.1-10.3.8-18 1.3-74.9 5.8-139.9 26-183.5 56.8-12.7 9-31.4 27.5-38 37.7-13.7 21.1-20.7 43.4-21.7 68.5-1.4 35.9 12.3 64.4 38.4 79.9 17.6 10.4 55.9 18.3 81.3 16.6 29.3-1.9 54.9-9.6 88.7-26.6 8.7-4.3 15.8-7.9 15.9-7.9.1 0 2.9 5.1 6.2 11.3 17.5 33.3 40.6 62.3 65 81.7 16.5 13.1 38.7 24.6 57.3 29.7 9.9 2.8 29.1 2.5 38.9-.5 29.9-9.3 54.4-35.9 66.5-72.6 7-21.2 8.4-46.9 3.6-68.4-6.9-31.3-24.3-66.8-48.3-98.5-26-34.5-64.2-71.9-103.2-101.2l-11.3-8.5-16.9.2c-9.3.1-18.7.3-20.9.5zM915.1 1293.1c-15.3 2.6-29.7 10.3-42.2 22.8-40.1 39.9-48.5 114.7-19.4 173.3 6.3 12.8 12.9 22.2 22.5 32.2 20.8 21.6 44.1 31.3 68.8 28.5 16.5-1.8 31.2-9.1 44.8-22.1 18.8-18 31.5-44.6 36-75.1 2.2-15 1.5-43.7-1.5-58.2-13.5-65.4-60.7-109.4-109-101.4zM650 1382.1c-20.3 1.4-34.7 8.3-48.9 23.5-19.8 21.3-27.3 56.5-19.6 93.4 5.7 27.9 21.1 57.7 41.1 79.8 28.2 31.1 67.9 48.8 99.8 44.3 57-8 82.8-71.7 57-140.8-20-53.6-66.7-94.7-113.4-100.1-3.6-.4-10.8-.4-16-.1zM1134.6 1407.9c-57.6 16-90.6 97.5-67.5 166.5 7.9 23.5 23.8 43.9 41.8 53.5 11.2 5.9 18.4 7.6 32.1 7.6 11.4-.1 13.3-.4 21.3-3.2 31.2-11 55.5-41.3 65.8-82 9.2-36.4 4.4-75.1-12.9-104.7-5.6-9.7-20.9-25.4-29.4-30.4-10.5-6.2-18.9-8.5-32.3-8.9-9.5-.2-13.4.1-18.9 1.6zM524.4 1608.5c-43.4 9.4-64.2 51.8-50.3 102.4 10.2 36.7 39.5 71.4 75.6 89.5 16.8 8.4 31.7 12 49.3 12 14 0 23.4-2 34.5-7.5 18.3-9 31.1-26.4 35.7-48.5 5.6-27.2-3.3-61.4-23.4-89.9-7.7-11-24.6-28-35.5-35.8-15.3-10.9-33.6-18.9-51.1-22.3-9.1-1.7-26.6-1.7-34.8.1zM864.5 1640.6c-4.5 2.3-24.3 17.5-37.4 28.8-58.5 50.1-99.3 103-116.9 151.6-6.7 18.4-11.2 40.4-11.2 54.9 0 17.8 6.1 42.5 14.8 59.7 19.2 38 54.3 60.2 87.7 55.4 39.9-5.7 84-38.1 115.6-85.1 6.2-9.2 17.1-28.4 20.3-35.6l1.9-4.2 16.6 8.3c38.1 19.1 65.3 26.6 96.1 26.6 28.3-.1 59.5-7.5 76.3-18.2 23.5-15.1 36.1-41.1 35.9-74.8-.2-32.8-12.9-65.1-34.9-88.1-44.7-46.7-126.5-74.9-232.3-79.9-27.9-1.3-29-1.3-32.5.6z"/></svg><svg stroke="#fff" viewBox="0 0 44 44" id="pufff" xmlns="http://www.w3.org/2000/svg"><g fill="none" fill-rule="evenodd" stroke-width="2"><circle cx="22" cy="22" r="1"><animate attributeName="r" begin="0s" dur="1.8s" values="1; 20" calcMode="spline" keyTimes="0; 1" keySplines="0.165, 0.84, 0.44, 1" repeatCount="indefinite"/><animate attributeName="stroke-opacity" begin="0s" dur="1.8s" values="1; 0" calcMode="spline" keyTimes="0; 1" keySplines="0.3, 0.61, 0.355, 1" repeatCount="indefinite"/></circle><circle cx="22" cy="22" r="1"><animate attributeName="r" begin="-0.9s" dur="1.8s" values="1; 20" calcMode="spline" keyTimes="0; 1" keySplines="0.165, 0.84, 0.44, 1" repeatCount="indefinite"/><animate attributeName="stroke-opacity" begin="-0.9s" dur="1.8s" values="1; 0" calcMode="spline" keyTimes="0; 1" keySplines="0.3, 0.61, 0.355, 1" repeatCount="indefinite"/></circle></g></svg></svg>